<?xml version="1.0" standalone="no"?>
<!DOCTYPE svg PUBLIC "-//W3C//DTD SVG 20010904//EN"
 "http://www.w3.org/TR/2001/REC-SVG-20010904/DTD/svg10.dtd">
<svg version="1.0" xmlns="http://www.w3.org/2000/svg"
 width="288.000000pt" height="384.000000pt" viewBox="0 0 288.000000 384.000000"
 preserveAspectRatio="xMidYMid meet">

<g transform="translate(0.000000,384.000000) scale(0.100000,-0.100000)"
fill="#000000" stroke="none">
<path d="M1115 3754 c-22 -8 -49 -18 -60 -24 -11 -5 -54 -21 -95 -34 -50 -16
-80 -33 -90 -48 -8 -13 -21 -27 -28 -31 -7 -5 -39 -33 -71 -63 -50 -46 -69
-76 -140 -217 -45 -91 -82 -177 -82 -193 -1 -146 10 -284 25 -313 17 -32 56
-146 56 -162 0 -5 11 -31 24 -58 16 -34 19 -48 10 -44 -16 6 -19 -13 -4 -22
10 -6 31 -50 55 -116 12 -34 12 -36 -5 -32 -26 7 -54 -39 -47 -77 6 -29 43
-80 59 -80 4 0 8 19 9 43 l0 42 15 -50 c8 -27 21 -90 28 -140 45 -290 112
-456 238 -591 33 -35 56 -64 52 -64 -5 0 9 -11 31 -24 22 -13 44 -22 49 -19 5
4 6 1 2 -5 -4 -7 -1 -12 8 -12 9 0 13 -6 10 -14 -3 -7 6 -23 20 -33 14 -11 22
-23 18 -27 -3 -4 2 -4 12 0 14 5 17 4 12 -4 -4 -7 -1 -12 7 -12 7 0 22 -8 33
-18 11 -10 29 -18 41 -17 12 1 21 -3 20 -8 -1 -6 17 -11 40 -12 24 0 38 2 33
5 -6 4 1 12 14 18 19 8 26 8 29 -1 3 -9 9 -9 23 -1 15 9 21 8 30 -4 10 -14 15
-13 42 6 16 12 35 22 41 22 6 0 11 5 11 11 0 6 -7 9 -14 6 -10 -4 -13 -1 -9 9
7 18 58 46 67 37 3 -4 13 2 21 13 8 11 15 14 15 7 0 -24 16 -13 29 20 7 17 15
26 18 20 6 -17 24 -17 18 0 -3 6 22 34 55 61 33 28 60 55 60 63 0 7 9 17 20
23 11 6 20 18 20 26 0 11 6 14 16 10 8 -3 12 -2 9 4 -3 6 3 23 15 40 40 56 71
139 95 256 14 66 24 137 24 159 -1 44 -4 35 -14 -38 -3 -26 -10 -45 -15 -42
-4 3 -6 -4 -3 -15 3 -11 0 -26 -6 -33 -6 -8 -8 -17 -4 -20 3 -4 1 -7 -5 -7 -7
0 -12 -5 -12 -11 0 -5 6 -7 13 -3 6 4 5 -1 -5 -11 -18 -19 -43 -11 -34 12 3 8
1 11 -4 8 -6 -3 -8 -19 -5 -35 3 -16 1 -31 -5 -35 -5 -3 -7 -13 -4 -23 2 -9
-2 -3 -10 13 -9 17 -15 23 -16 14 0 -9 -7 -19 -14 -22 -12 -5 -14 1 -11 24 3
26 2 29 -11 18 -11 -9 -14 -23 -10 -48 5 -33 5 -34 -6 -11 -11 24 -12 23 -18
-20 -4 -25 -6 -48 -3 -52 2 -5 -1 -8 -7 -8 -6 0 -9 -4 -6 -9 3 -5 -1 -12 -9
-15 -8 -3 -14 -11 -13 -17 2 -7 -9 -13 -24 -14 -20 -1 -27 3 -31 22 -3 15 0
23 10 23 8 0 13 8 12 18 -1 9 1 25 6 35 5 12 0 33 -15 62 -21 42 -32 48 -57
32 -6 -4 -15 -2 -18 4 -4 5 -14 8 -22 5 -8 -3 -12 -2 -9 3 3 5 -10 9 -30 8
-21 -1 -39 5 -44 13 -5 8 -15 15 -22 15 -7 0 -14 9 -17 20 -3 17 -2 18 15 5
12 -11 15 -11 10 -2 -4 7 -18 17 -30 22 -16 7 -17 9 -4 9 10 1 22 10 28 20 8
16 5 23 -16 40 -31 25 -43 26 -69 7 -28 -19 -104 -19 -141 1 -31 16 -33 16
-63 -10 -31 -26 -32 -26 -12 -46 19 -19 19 -20 1 -36 -11 -10 -19 -20 -18 -24
2 -18 -3 -22 -15 -13 -16 13 -29 5 -44 -28 -9 -19 -12 -21 -12 -7 -1 14 -5 16
-19 8 -13 -7 -22 -7 -29 0 -8 8 -13 8 -17 0 -4 -5 -12 -8 -20 -5 -14 5 -54
-72 -43 -83 4 -3 -1 -15 -10 -26 -10 -11 -12 -17 -5 -13 6 4 12 2 12 -4 0 -6
5 -8 10 -5 5 3 10 -1 10 -11 0 -13 -3 -14 -13 -5 -8 6 -16 9 -19 6 -3 -3 -19
9 -37 26 -23 22 -29 34 -22 43 12 14 3 56 -11 56 -6 0 -4 8 3 18 13 16 13 16
-6 2 -11 -8 -23 -19 -27 -25 -4 -6 -8 -2 -8 8 0 10 -4 16 -9 13 -4 -3 -6 5 -4
18 3 16 -3 29 -21 44 -19 15 -25 27 -22 45 6 32 -9 57 -17 28 -3 -12 0 -21 6
-21 7 0 3 -7 -8 -15 -17 -13 -20 -13 -28 0 -4 9 -10 25 -12 38 -3 12 -7 35
-11 50 -3 16 -7 38 -8 50 -2 12 -6 31 -9 42 -14 44 -28 205 -29 325 0 110 2
132 21 168 22 44 42 202 21 172 -8 -11 -9 -7 -4 15 4 17 9 35 13 40 3 6 6 13
7 18 1 4 2 10 3 15 1 4 6 0 11 -8 8 -13 10 -12 10 3 0 10 4 16 9 12 5 -3 15 1
23 8 16 16 81 40 73 27 -4 -6 -2 -10 4 -10 5 0 11 5 13 12 3 7 10 8 17 4 11
-7 11 -10 0 -17 -8 -5 -9 -9 -4 -9 15 1 56 37 53 47 -2 4 -1 8 2 9 3 0 16 7
30 14 14 8 28 15 33 16 4 1 10 3 15 4 4 1 12 3 17 4 6 1 28 10 50 20 22 10 49
19 60 20 11 1 26 5 33 9 6 5 12 4 12 -2 0 -6 11 -7 28 -2 15 4 37 7 50 6 12
-1 22 2 22 8 0 5 34 6 80 3 46 -3 82 -1 85 4 4 6 15 10 26 10 13 0 18 4 13 12
-4 7 -3 8 4 4 7 -4 12 -14 12 -21 0 -12 5 -12 24 -4 18 9 29 8 48 -5 14 -9 27
-13 30 -10 4 3 17 0 30 -7 12 -7 31 -13 41 -14 10 0 21 -6 26 -13 4 -7 15 -14
24 -16 9 -1 25 -10 37 -21 18 -16 20 -17 20 -1 0 14 4 15 20 6 11 -6 20 -7 20
-3 0 4 5 0 11 -10 6 -9 14 -15 18 -12 26 16 77 -127 72 -202 -2 -18 6 -56 17
-85 23 -66 27 -112 26 -316 -1 -146 1 -160 13 -132 7 18 13 45 13 61 0 18 5
29 14 29 17 0 28 51 14 67 -20 25 21 217 66 311 20 40 36 77 36 82 0 5 7 16
16 24 14 15 25 85 24 159 0 16 6 30 15 33 8 4 15 10 15 16 0 5 -4 7 -8 4 -5
-3 -9 1 -9 8 0 8 7 12 15 9 11 -5 13 -1 8 14 -4 12 -1 25 9 33 8 7 15 17 15
23 0 6 7 18 16 28 15 17 15 18 -10 13 -15 -2 -26 0 -26 6 0 6 4 9 9 6 4 -3 13
6 20 20 16 35 13 44 -5 14 l-15 -25 6 25 c4 14 8 42 9 62 0 21 5 38 9 38 9 0
2 87 -11 140 -11 46 -25 70 -54 97 -24 22 -40 20 -51 -7 -3 -8 -6 0 -6 18 -1
22 -6 32 -16 32 -9 0 -18 6 -21 13 -5 14 -44 21 -44 7 0 -5 8 -14 18 -20 12
-8 13 -13 4 -16 -6 -3 -9 -11 -5 -17 4 -7 -1 -6 -10 2 -10 8 -15 16 -12 19 8
9 -29 31 -53 32 -13 0 -37 7 -53 16 -21 10 -34 12 -43 5 -8 -7 -21 -5 -43 9
-20 12 -34 15 -41 8 -6 -6 -12 -6 -17 3 -6 8 -4 10 5 4 8 -5 11 -4 7 3 -4 5
-17 8 -30 5 -12 -3 -19 -3 -15 1 6 7 -26 46 -38 46 -3 0 -17 9 -31 20 -14 11
-31 20 -37 20 -6 0 -2 -6 9 -12 25 -13 85 -69 85 -79 0 -4 -10 -5 -22 -3 l-23
5 23 -12 c31 -17 28 -28 -8 -27 -22 1 -29 5 -26 14 3 8 -3 18 -14 24 -25 13
-33 13 -24 -1 8 -13 -13 -10 -106 18 -30 9 -58 16 -62 15 -5 -1 -8 2 -8 8 0 5
-31 9 -68 9 -52 0 -78 5 -108 21 -21 12 -30 15 -20 6 18 -14 18 -16 3 -16 -10
0 -29 7 -43 17 -20 13 -32 14 -59 6 -25 -8 -34 -8 -32 1 3 16 -70 16 -118 0z
m118 -31 c-7 -2 -19 -2 -25 0 -7 3 -2 5 12 5 14 0 19 -2 13 -5z m179 -24 c29
-19 23 -19 -21 -1 -10 4 -12 1 -6 -8 5 -9 4 -11 -4 -6 -6 4 -9 11 -6 16 3 5
-3 11 -12 13 -17 4 -17 5 -1 6 10 0 32 -8 50 -20z m-84 4 c-10 -2 -26 -2 -35
0 -10 3 -2 5 17 5 19 0 27 -2 18 -5z m173 -21 c-7 -2 -18 1 -23 6 -8 8 -4 9
13 5 13 -4 18 -8 10 -11z m-168 -19 c-7 -2 -19 -2 -25 0 -7 3 -2 5 12 5 14 0
19 -2 13 -5z m124 -29 c-3 -3 -12 -4 -19 -1 -8 3 -5 6 6 6 11 1 17 -2 13 -5z
m723 -66 c0 -6 7 -19 16 -29 12 -14 13 -18 2 -25 -7 -4 -10 -4 -6 0 4 5 -2 17
-13 29 -21 23 -24 37 -9 37 6 0 10 -5 10 -12z m78 -23 c-3 -3 -9 2 -12 12 -6
14 -5 15 5 6 7 -7 10 -15 7 -18z m-40 -70 c-3 -3 -9 2 -12 12 -6 14 -5 15 5 6
7 -7 10 -15 7 -18z m39 -17 c-3 -8 -6 -5 -6 6 -1 11 2 17 5 13 3 -3 4 -12 1
-19z m-36 -91 c-10 -9 -11 -8 -5 6 3 10 9 15 12 12 3 -3 0 -11 -7 -18z m-21
-1 c0 -2 -8 -10 -17 -17 -16 -13 -17 -12 -4 4 13 16 21 21 21 13z m-20 -94 c0
-5 -7 -17 -16 -28 -8 -10 -14 -14 -11 -9 2 6 7 18 10 28 7 17 17 23 17 9z m12
-64 c-7 -7 -10 -5 -7 8 5 29 6 30 12 16 3 -8 1 -18 -5 -24z m115 -73 c0 -8 -4
-12 -9 -9 -5 3 -6 10 -3 15 9 13 12 11 12 -6z m-1303 -166 c-6 -11 -24 -2 -24
11 0 5 7 7 15 4 8 -4 12 -10 9 -15z m344 -973 c-2 -1 -11 -7 -20 -14 -14 -11
-16 -10 -11 7 3 12 11 17 19 14 8 -3 14 -6 12 -7z m163 -9 c-13 -13 -26 -3
-16 12 3 6 11 8 17 5 6 -4 6 -10 -1 -17z m-647 -35 c3 -5 -1 -9 -9 -9 -8 0
-12 4 -9 9 3 4 7 8 9 8 2 0 6 -4 9 -8z m-4 -32 c0 -5 -2 -10 -4 -10 -3 0 -8 5
-11 10 -3 6 -1 10 4 10 6 0 11 -4 11 -10z m510 -60 c5 0 16 7 24 16 9 8 16 12
16 7 0 -5 16 -10 35 -11 21 -2 35 2 35 9 0 8 4 9 13 0 8 -6 18 -7 22 -3 5 4 5
-2 2 -13 -7 -19 -6 -19 11 1 18 21 19 21 43 4 14 -12 26 -15 30 -8 3 5 9 0 12
-11 4 -17 0 -21 -21 -23 -40 -2 -46 -3 -58 -10 -6 -4 -30 -6 -53 -3 -22 2 -41
0 -41 -5 0 -6 -11 -5 -27 1 -16 6 -45 11 -65 11 -21 -1 -40 3 -43 9 -4 5 -1 9
4 9 6 0 11 5 11 11 0 7 8 18 18 25 14 10 18 10 20 -2 2 -8 7 -14 12 -14z m613
-5 c-7 -21 -12 -19 -10 4 0 11 5 18 9 15 4 -3 5 -11 1 -19z m-1013 1 c0 -3 -4
-8 -10 -11 -5 -3 -10 -1 -10 4 0 6 5 11 10 11 6 0 10 -2 10 -4z m295 -17 c-4
-5 -16 -9 -28 -9 -20 0 -20 0 -2 14 21 15 40 12 30 -5z m659 -35 c9 -24 7 -31
-5 -11 -6 9 -15 14 -21 11 -7 -4 -8 -2 -4 4 10 17 23 15 30 -4z m-305 -32 c3
-6 22 -9 41 -8 46 3 77 -11 82 -39 7 -33 -8 -66 -27 -59 -8 4 -17 0 -21 -9 -3
-8 -19 -21 -36 -28 -24 -10 -31 -10 -38 1 -4 7 -12 10 -18 6 -6 -3 -12 -1 -14
6 -3 7 -37 13 -92 16 -48 3 -82 8 -75 12 7 5 2 7 -14 7 -14 -1 -23 -5 -21 -8
2 -3 -22 -9 -53 -12 -31 -3 -60 -12 -64 -19 -5 -7 -9 -9 -9 -5 0 5 -5 5 -10 2
-6 -4 -1 -14 12 -25 13 -11 19 -20 13 -20 -5 0 1 -7 14 -14 15 -8 37 -10 60
-6 46 8 61 3 54 -18 -5 -14 -3 -15 7 -5 10 10 17 10 28 1 10 -9 15 -9 22 2 9
14 20 18 78 27 18 3 35 9 38 14 10 16 34 9 34 -10 0 -10 6 -21 14 -24 17 -7
28 -58 12 -56 -27 3 -36 -2 -36 -22 0 -19 -1 -19 -17 -3 -14 13 -18 14 -22 3
-7 -16 -31 -23 -31 -9 0 5 -6 7 -14 4 -9 -3 -19 5 -28 23 -19 39 -45 42 -61 5
-9 -21 -18 -28 -34 -27 -13 1 -23 -2 -23 -7 0 -4 -16 1 -35 12 -32 18 -35 18
-36 2 0 -15 -1 -15 -7 -1 -4 9 -15 15 -25 13 -14 -2 -18 2 -14 16 3 11 0 21
-5 22 -14 5 -19 56 -7 63 10 7 -15 37 -28 33 -4 -2 -20 10 -36 25 -15 16 -31
26 -36 23 -5 -3 -11 5 -13 19 -7 36 22 58 77 57 34 0 45 3 45 15 0 14 10 15
73 8 86 -10 116 -9 182 3 56 11 105 8 114 -6z"/>
<path d="M1940 3656 c0 -2 7 -7 16 -10 8 -3 12 -2 9 4 -6 10 -25 14 -25 6z"/>
<path d="M1777 2623 c-3 -2 -34 -11 -69 -19 -34 -7 -72 -16 -83 -19 -56 -14
-81 -19 -90 -19 -5 -1 -11 -11 -13 -24 -3 -16 -8 -22 -18 -18 -9 3 -12 1 -9
-4 3 -6 -2 -10 -13 -10 -18 0 -52 -29 -52 -44 0 -4 14 -12 30 -18 17 -5 35
-18 40 -29 7 -11 16 -16 27 -12 19 7 44 -22 36 -43 -3 -8 -2 -14 3 -12 5 1 19
-3 32 -10 12 -7 22 -10 22 -6 0 3 6 1 14 -5 15 -12 66 -25 66 -17 0 13 -49 51
-60 48 -7 -3 -11 1 -8 9 3 8 -2 19 -9 24 -12 9 -11 15 6 35 15 19 20 21 21 9
0 -22 42 -59 68 -59 14 0 27 11 38 33 9 17 18 33 19 35 6 6 45 -23 45 -33 0
-6 20 -10 46 -9 45 2 70 13 47 21 -7 3 -13 9 -13 14 0 19 -38 50 -66 55 -48 9
-49 21 -5 42 22 11 41 17 41 12 0 -4 12 -6 28 -3 23 3 24 2 7 -6 -30 -14 -1
-13 31 2 50 21 40 57 -16 57 -20 0 -22 -2 -10 -11 12 -9 12 -10 -3 -5 -10 3
-21 6 -23 6 -3 0 -2 5 2 11 4 7 1 10 -7 7 -8 -3 -25 -1 -39 4 -35 13 -57 17
-63 11z m13 -143 c18 -12 2 -12 -25 0 -13 6 -15 9 -5 9 8 0 22 -4 30 -9z m56
-25 c10 -8 15 -14 9 -14 -5 0 -19 6 -29 14 -11 8 -15 15 -10 15 6 0 19 -7 30
-15z"/>
<path d="M950 2596 c-6 -6 -27 -11 -47 -13 -46 -3 -56 -14 -59 -63 -1 -29 2
-40 12 -40 20 0 29 4 27 11 -4 11 68 16 74 6 3 -5 -7 -21 -23 -36 -35 -31 -43
-60 -17 -63 48 -4 81 -2 77 3 -4 6 39 39 51 39 3 0 5 -6 5 -14 0 -8 12 -24 26
-35 31 -24 63 -16 82 22 8 16 18 24 27 20 23 -8 18 -43 -7 -53 -23 -9 -23 -9
2 -10 24 -1 24 -1 5 -16 -11 -8 -25 -12 -33 -9 -7 2 -10 1 -7 -4 3 -6 -3 -15
-12 -21 -14 -9 -11 -10 17 -4 19 4 41 10 50 15 8 4 24 10 35 14 16 5 17 8 5
15 -12 8 -11 10 7 10 16 0 21 5 18 19 -3 17 0 19 21 11 13 -5 24 -6 24 -1 0 4
11 14 25 21 25 13 36 60 15 60 -5 0 -10 6 -10 13 0 16 -35 50 -53 53 -7 1 -32
9 -57 17 -66 22 -201 48 -238 45 -18 -1 -37 -7 -42 -12z m100 -121 c0 -8 -73
-36 -78 -30 -3 2 10 11 29 19 36 16 49 19 49 11z"/>
<path d="M2172 2543 c-5 -10 -6 -27 -2 -38 8 -21 13 -15 23 33 6 26 -8 29 -21
5z"/>
<path d="M600 2481 c0 -22 5 -43 10 -46 6 -3 10 5 10 19 0 14 5 28 10 31 8 5
7 11 -1 21 -20 24 -29 16 -29 -25z"/>
<path d="M1078 2343 c6 -2 18 -2 25 0 6 3 1 5 -13 5 -14 0 -19 -2 -12 -5z"/>
<path d="M836 2055 c-3 -8 -1 -15 4 -15 6 0 10 7 10 15 0 8 -2 15 -4 15 -2 0
-6 -7 -10 -15z"/>
<path d="M1007 1833 c-3 -5 -1 -17 4 -28 6 -17 7 -16 6 8 -1 28 -3 32 -10 20z"/>
<path d="M1787 1713 c-11 -11 -8 -20 7 -20 8 0 12 6 9 14 -6 15 -7 15 -16 6z"/>
<path d="M908 1583 c6 -2 18 -2 25 0 6 3 1 5 -13 5 -14 0 -19 -2 -12 -5z"/>
<path d="M1892 1408 c2 -91 -9 -130 -91 -316 -23 -52 -62 -160 -87 -240 -26
-81 -53 -167 -61 -192 -7 -25 -18 -65 -24 -90 -33 -146 -48 -177 -134 -273
-140 -157 -205 -220 -209 -205 -21 77 -30 117 -30 140 -1 14 -4 24 -7 22 -4
-2 -12 17 -18 42 -9 36 -9 48 2 59 17 17 57 9 57 -12 0 -8 5 -11 10 -8 8 5 7
11 0 20 -7 8 -9 19 -5 25 4 6 -1 20 -11 31 -17 19 -18 19 -51 -13 -18 -17 -33
-26 -33 -19 0 19 100 140 171 208 59 55 98 118 99 156 0 9 -4 17 -10 17 -5 0
-10 -8 -10 -17 -1 -39 -40 -96 -135 -198 -55 -59 -104 -114 -109 -122 -7 -12
-10 -13 -16 -2 -7 10 42 80 90 129 34 34 52 60 39 55 -9 -3 -42 -37 -74 -75
-55 -67 -75 -83 -75 -60 0 6 33 50 74 98 52 60 71 89 63 95 -8 6 -6 7 5 4 21
-7 45 18 25 26 -9 3 -15 24 -16 59 -4 89 -7 98 -30 121 l-22 22 10 -28 c8 -21
7 -35 -4 -56 -8 -16 -12 -31 -9 -34 4 -3 -1 -27 -10 -54 -9 -26 -17 -57 -19
-68 -2 -11 -9 -31 -14 -45 -6 -14 -14 -41 -18 -60 -8 -34 -9 -34 -16 -10 -7
24 -7 24 -8 -5 -2 -46 -17 -19 -39 70 -11 44 -25 91 -30 105 -5 14 -26 84 -47
155 -20 72 -59 184 -85 250 -53 132 -75 221 -67 271 l5 32 -76 -39 c-65 -33
-223 -88 -612 -211 -36 -11 -102 -34 -148 -50 l-82 -30 0 -544 0 -544 655 0
c517 0 655 3 655 13 0 6 23 36 50 64 27 29 46 53 42 53 -4 0 -26 -21 -50 -47
-35 -39 -44 -45 -52 -33 -7 11 21 46 123 150 73 74 133 137 134 139 2 2 3 -4
3 -15 0 -18 -15 -36 -114 -143 -24 -25 -32 -39 -20 -33 11 6 42 34 67 62 28
30 47 45 47 36 0 -9 -16 -34 -35 -55 -20 -22 -34 -45 -33 -52 2 -7 -4 -13 -12
-14 -19 0 -21 -24 -3 -52 9 -16 10 -29 3 -48 l-10 -25 715 0 715 0 0 553 0
553 -112 37 c-212 68 -553 169 -668 197 -105 26 -118 31 -148 66 -18 21 -35
48 -38 61 -13 49 -24 19 -22 -59z"/>
<path d="M954 1413 c9 -17 41 -53 73 -79 87 -72 96 -76 26 -11 -34 32 -74 73
-89 90 l-25 32 15 -32z"/>
<path d="M1825 1384 c-15 -20 -55 -56 -89 -81 -74 -54 -82 -62 -37 -37 44 25
115 88 141 125 30 41 18 36 -15 -7z"/>
<path d="M1140 1247 c0 -2 15 -14 33 -27 20 -15 27 -17 18 -6 -13 16 -51 41
-51 33z"/>
<path d="M1235 1175 c44 -38 125 -86 125 -75 0 6 -4 10 -8 10 -5 0 -39 20 -78
45 -38 25 -55 34 -39 20z"/>
<path d="M1496 1148 c-21 -12 -55 -27 -75 -34 -30 -11 -32 -13 -11 -13 23 -1
130 53 130 64 0 7 1 7 -44 -17z"/>
<path d="M1304 1048 c-17 -18 -41 -50 -53 -71 -29 -48 -17 -64 82 -109 31 -14
34 -25 10 -31 -11 -3 -7 -5 10 -6 16 -1 27 -7 27 -15 0 -8 3 -22 7 -32 4 -12
3 -15 -5 -10 -9 5 -9 1 -3 -18 8 -18 6 -28 -5 -37 -8 -6 -12 -14 -9 -17 3 -3
16 5 30 18 14 13 25 19 25 14 0 -14 -29 -53 -64 -86 -22 -21 -25 -26 -10 -19
49 24 91 89 96 146 4 63 -2 75 -62 119 -33 24 -73 50 -90 58 -16 7 -30 16 -30
20 0 31 142 -51 171 -99 15 -24 24 -32 27 -22 3 8 20 33 40 57 l34 43 -43 65
-44 64 -55 0 c-50 0 -59 -3 -86 -32z m151 -65 c-11 -7 -16 -13 -12 -13 3 0 1
-13 -4 -30 -12 -32 -23 -38 -36 -17 -11 18 -13 38 -2 31 5 -3 9 0 9 6 0 6 5 8
11 4 7 -4 10 -1 7 7 -5 16 22 40 36 32 5 -4 1 -12 -9 -20z m-131 -68 c67 -37
110 -75 86 -75 -15 0 -145 85 -155 100 -10 17 4 11 69 -25z"/>
<path d="M1470 693 c0 -21 -68 -123 -82 -123 -5 0 -6 -5 -2 -11 4 -8 9 -7 15
2 6 10 8 7 6 -8 0 -12 -4 -20 -8 -17 -3 2 -6 -8 -6 -21 0 -14 3 -28 8 -31 5
-3 6 1 3 9 -3 8 -1 17 4 20 4 3 8 -7 8 -23 0 -21 -4 -27 -15 -23 -9 2 -4 -3
12 -12 28 -16 35 -27 15 -22 -7 1 -12 -12 -14 -31 l-2 -32 23 24 23 24 -1 -33
c-1 -19 -5 -32 -9 -29 -4 3 -4 12 -1 21 4 11 3 14 -5 9 -7 -4 -12 -14 -12 -22
0 -10 -5 -12 -12 -8 -7 5 -5 -3 4 -16 9 -14 21 -24 27 -22 7 1 4 -10 -5 -25
-9 -16 17 8 58 52 l75 80 -12 54 c-7 30 -28 94 -46 143 -32 84 -49 109 -49 71z
m-30 -283 c0 -5 -2 -10 -4 -10 -3 0 -8 5 -11 10 -3 6 -1 10 4 10 6 0 11 -4 11
-10z m15 -78 c-3 -3 -11 0 -18 7 -9 10 -8 11 6 5 10 -3 15 -9 12 -12z"/>
<path d="M1285 460 c-14 -16 -16 -23 -7 -32 9 -9 12 -9 12 1 0 7 4 10 9 7 5
-3 8 5 7 19 0 14 -1 25 -2 25 0 0 -9 -9 -19 -20z"/>
<path d="M1242 344 c-7 -8 -8 -14 -3 -14 10 0 25 19 20 25 -2 1 -10 -3 -17
-11z"/>
<path d="M1299 143 c-13 -16 -12 -17 4 -4 16 13 21 21 13 21 -2 0 -10 -8 -17
-17z"/>
<path d="M1424 69 c-4 -8 -3 -9 4 -5 7 4 12 3 12 -3 0 -5 -8 -14 -17 -20 -16
-9 -16 -10 4 -8 12 0 20 4 17 8 -2 4 1 9 7 11 7 2 6 8 -4 16 -12 10 -17 10
-23 1z"/>
<path d="M1379 53 c-13 -16 -12 -17 4 -4 16 13 21 21 13 21 -2 0 -10 -8 -17
-17z"/>
<path d="M1336 15 c-11 -8 -15 -15 -9 -15 6 0 16 7 23 15 16 19 11 19 -14 0z"/>
</g>
</svg>
